<svg width="1440" height="280" viewBox="0 0 1440 280" fill="none" xmlns="http://www.w3.org/2000/svg">
<g clip-path="url(#clip0_1_626)">
<path d="M-407.684 200.637C-408.79 215.936 -414.454 227.98 -424.676 236.77C-434.832 245.559 -448.243 249.953 -464.91 249.953C-483.139 249.953 -497.495 243.833 -507.977 231.594C-518.393 219.289 -523.602 202.427 -523.602 181.008V172.316C-523.602 158.645 -521.193 146.6 -516.375 136.184C-511.557 125.767 -504.689 117.792 -495.77 112.258C-486.785 106.659 -476.368 103.859 -464.52 103.859C-448.113 103.859 -434.897 108.254 -424.871 117.043C-414.845 125.832 -409.051 138.169 -407.488 154.055H-436.785C-437.501 144.875 -440.073 138.234 -444.5 134.133C-448.862 129.966 -455.535 127.883 -464.52 127.883C-474.285 127.883 -481.609 131.398 -486.492 138.43C-491.31 145.396 -493.784 156.236 -493.914 170.949V181.691C-493.914 197.056 -491.603 208.286 -486.98 215.383C-482.293 222.479 -474.936 226.027 -464.91 226.027C-455.861 226.027 -449.122 223.977 -444.695 219.875C-440.203 215.708 -437.632 209.296 -436.98 200.637H-407.684ZM-357.293 248H-386.59V105.812H-357.293V248ZM-214.422 248H-243.719L-300.75 154.445V248H-330.047V105.812H-300.75L-243.621 199.562V105.812H-214.422V248ZM-103.289 186.379H-159.539V224.465H-93.5234V248H-188.836V105.812H-93.7188V129.543H-159.539V163.43H-103.289V186.379ZM85.0898 200.637C83.9831 215.936 78.319 227.98 68.0977 236.77C57.9414 245.559 44.5299 249.953 27.8633 249.953C9.63411 249.953 -4.72135 243.833 -15.2031 231.594C-25.6198 219.289 -30.8281 202.427 -30.8281 181.008V172.316C-30.8281 158.645 -28.4193 146.6 -23.6016 136.184C-18.7839 125.767 -11.9154 117.792 -2.99609 112.258C5.98828 106.659 16.4049 103.859 28.2539 103.859C44.6602 103.859 57.8763 108.254 67.9023 117.043C77.9284 125.832 83.7227 138.169 85.2852 154.055H55.9883C55.2721 144.875 52.7005 138.234 48.2734 134.133C43.9115 129.966 37.2383 127.883 28.2539 127.883C18.4883 127.883 11.1641 131.398 6.28125 138.43C1.46354 145.396 -1.01042 156.236 -1.14062 170.949V181.691C-1.14062 197.056 1.17057 208.286 5.79297 215.383C10.4805 222.479 17.8372 226.027 27.8633 226.027C36.9128 226.027 43.651 223.977 48.0781 219.875C52.5703 215.708 55.1419 209.296 55.793 200.637H85.0898ZM184.602 218.703H133.234L123.469 248H92.3164L145.246 105.812H172.395L225.617 248H194.465L184.602 218.703ZM141.145 194.973H176.691L158.82 141.75L141.145 194.973ZM344.758 105.812V199.465C344.758 215.025 339.875 227.329 330.109 236.379C320.409 245.428 307.128 249.953 290.266 249.953C273.664 249.953 260.48 245.559 250.715 236.77C240.949 227.98 235.969 215.904 235.773 200.539V105.812H265.07V199.66C265.07 208.97 267.284 215.773 271.711 220.07C276.203 224.302 282.388 226.418 290.266 226.418C306.737 226.418 315.103 217.759 315.363 200.441V105.812H344.758ZM475.812 129.543H432.258V248H402.961V129.543H359.992V105.812H475.812V129.543ZM561.164 218.703H509.797L500.031 248H468.879L521.809 105.812H548.957L602.18 248H571.027L561.164 218.703ZM517.707 194.973H553.254L535.383 141.75L517.707 194.973ZM569.66 68.7031C569.66 77.362 566.535 84.3607 560.285 89.6992C554.1 95.0378 545.962 97.707 535.871 97.707C525.78 97.707 517.609 95.0703 511.359 89.7969C505.174 84.5234 502.082 77.4922 502.082 68.7031H522.102C522.102 72.8047 523.306 75.9948 525.715 78.2734C528.189 80.487 531.574 81.5938 535.871 81.5938C540.103 81.5938 543.423 80.487 545.832 78.2734C548.241 75.9948 549.445 72.8047 549.445 68.7031H569.66ZM620.93 283.645L606.184 275.93L609.699 269.582C614.061 261.639 616.307 253.729 616.438 245.852V223.977H640.266L640.168 243.508C640.103 250.734 638.28 258.026 634.699 265.383C631.118 272.74 626.529 278.827 620.93 283.645ZM752.375 105.812L788.898 208.938L825.227 105.812H863.703V248H834.309V209.133L837.238 142.043L798.859 248H778.742L740.461 142.141L743.391 209.133V248H714.094V105.812H752.375ZM996.906 105.812V199.465C996.906 215.025 992.023 227.329 982.258 236.379C972.557 245.428 959.276 249.953 942.414 249.953C925.812 249.953 912.629 245.559 902.863 236.77C893.098 227.98 888.117 215.904 887.922 200.539V105.812H917.219V199.66C917.219 208.97 919.432 215.773 923.859 220.07C928.352 224.302 934.536 226.418 942.414 226.418C958.885 226.418 967.251 217.759 967.512 200.441V105.812H996.906ZM1136.55 248H1107.26L1050.23 154.445V248H1020.93V105.812H1050.23L1107.36 199.562V105.812H1136.55V248ZM1273.76 200.637C1272.65 215.936 1266.99 227.98 1256.77 236.77C1246.61 245.559 1233.2 249.953 1216.54 249.953C1198.31 249.953 1183.95 243.833 1173.47 231.594C1163.05 219.289 1157.84 202.427 1157.84 181.008V172.316C1157.84 158.645 1160.25 146.6 1165.07 136.184C1169.89 125.767 1176.76 117.792 1185.68 112.258C1194.66 106.659 1205.08 103.859 1216.93 103.859C1233.33 103.859 1246.55 108.254 1256.57 117.043C1266.6 125.832 1272.39 138.169 1273.96 154.055H1244.66C1243.94 144.875 1241.37 138.234 1236.95 134.133C1232.58 129.966 1225.91 127.883 1216.93 127.883C1207.16 127.883 1199.84 131.398 1194.95 138.43C1190.14 145.396 1187.66 156.236 1187.53 170.949V181.691C1187.53 197.056 1189.84 208.286 1194.46 215.383C1199.15 222.479 1206.51 226.027 1216.54 226.027C1225.58 226.027 1232.32 223.977 1236.75 219.875C1241.24 215.708 1243.81 209.296 1244.46 200.637H1273.76ZM1378.55 186.379H1322.3V224.465H1388.31V248H1293V105.812H1388.12V129.543H1322.3V163.43H1378.55V186.379ZM1479.23 210.695C1479.23 205.161 1477.28 200.93 1473.37 198C1469.46 195.005 1462.43 191.88 1452.28 188.625C1442.12 185.305 1434.08 182.049 1428.16 178.859C1412.01 170.135 1403.94 158.384 1403.94 143.605C1403.94 135.923 1406.09 129.087 1410.38 123.098C1414.74 117.043 1420.96 112.323 1429.04 108.938C1437.17 105.552 1446.29 103.859 1456.38 103.859C1466.54 103.859 1475.58 105.715 1483.53 109.426C1491.47 113.072 1497.62 118.247 1501.98 124.953C1506.41 131.659 1508.62 139.276 1508.62 147.805H1479.33C1479.33 141.294 1477.28 136.249 1473.18 132.668C1469.07 129.022 1463.31 127.199 1455.89 127.199C1448.73 127.199 1443.16 128.729 1439.19 131.789C1435.22 134.784 1433.23 138.755 1433.23 143.703C1433.23 148.326 1435.55 152.199 1440.17 155.324C1444.86 158.449 1451.72 161.379 1460.77 164.113C1477.44 169.126 1489.58 175.344 1497.2 182.766C1504.82 190.188 1508.62 199.432 1508.62 210.5C1508.62 222.805 1503.97 232.473 1494.66 239.504C1485.35 246.47 1472.82 249.953 1457.06 249.953C1446.12 249.953 1436.16 247.967 1427.18 243.996C1418.2 239.96 1411.33 234.458 1406.57 227.492C1401.89 220.526 1399.54 212.453 1399.54 203.273H1428.94C1428.94 218.964 1438.31 226.809 1457.06 226.809C1464.03 226.809 1469.46 225.409 1473.37 222.609C1477.28 219.745 1479.23 215.773 1479.23 210.695ZM1452.57 298.391L1438.61 290.676C1443.36 283.189 1445.83 275.311 1446.03 267.043V256.984H1466.73V263.918C1466.73 269.973 1465.36 276.223 1462.63 282.668C1459.96 289.113 1456.61 294.354 1452.57 298.391ZM1635.58 129.543H1592.02V248H1562.73V129.543H1519.76V105.812H1635.58V129.543ZM1737.92 186.379H1681.67V224.465H1747.69V248H1652.38V105.812H1747.49V129.543H1681.67V163.43H1737.92V186.379ZM1815.66 179.934C1815.66 175.441 1817.15 171.796 1820.15 168.996C1823.14 166.197 1826.95 164.797 1831.57 164.797C1836.2 164.797 1840.01 166.197 1843 168.996C1846.06 171.796 1847.59 175.441 1847.59 179.934C1847.59 184.426 1846.06 188.072 1843 190.871C1839.94 193.605 1836.13 194.973 1831.57 194.973C1826.89 194.973 1823.05 193.573 1820.05 190.773C1817.12 187.909 1815.66 184.296 1815.66 179.934Z" fill="black"/>
<path d="M76.0361 44.8906L78.3604 50.6914L80.6846 44.8906H81.9004V52H80.9629V49.2314L81.0508 46.2432L78.7168 52H77.999L75.6699 46.2578L75.7627 49.2314V52H74.8252V44.8906H76.0361ZM88.9693 50.1445H85.9908L85.3219 52H84.3551L87.0699 44.8906H87.8902L90.61 52H89.648L88.9693 50.1445ZM86.274 49.373H88.691L87.4801 46.0479L86.274 49.373ZM94.8127 48.8066H93.9484V52H93.0109V44.8906H93.9484V48.0254H94.6809L97.1662 44.8906H98.3332L95.6184 48.3379L98.5334 52H97.3859L94.8127 48.8066ZM104.811 48.7139H101.73V51.2334H105.309V52H100.793V44.8906H105.261V45.6621H101.73V47.9473H104.811V48.7139ZM112.886 45.6621H110.601V52H109.668V45.6621H107.388V44.8906H112.886V45.6621ZM120.872 48.8066H120.007V52H119.07V44.8906H120.007V48.0254H120.74L123.225 44.8906H124.392L121.677 48.3379L124.592 52H123.445L120.872 48.8066ZM130.778 50.1445H127.799L127.13 52H126.163L128.878 44.8906H129.698L132.418 52H131.456L130.778 50.1445ZM128.082 49.373H130.499L129.288 46.0479L128.082 49.373ZM140.239 52H139.297V48.7139H135.713V52H134.775V44.8906H135.713V47.9473H139.297V44.8906H140.239V52ZM147.318 50.1445H144.339L143.67 52H142.704L145.418 44.8906H146.239L148.958 52H147.996L147.318 50.1445ZM144.622 49.373H147.039L145.829 46.0479L144.622 49.373ZM156.779 44.8906V52H155.842V45.6621H153.293L153.166 48.4795C153.117 49.4235 153.02 50.1331 152.873 50.6084C152.73 51.0837 152.518 51.4336 152.238 51.6582C151.958 51.8796 151.584 51.9935 151.115 52H150.808V51.2334L151.003 51.2236C151.306 51.2008 151.538 51.1032 151.701 50.9307C151.864 50.7549 151.988 50.4766 152.072 50.0957C152.157 49.7148 152.217 49.1289 152.253 48.3379L152.399 44.8906H156.779ZM163.897 50.1445H160.919L160.25 52H159.283L161.998 44.8906H162.818L165.538 52H164.576L163.897 50.1445ZM161.202 49.373H163.619L162.408 46.0479L161.202 49.373ZM179.436 49.5488C179.397 50.3366 179.202 50.9583 178.85 51.4141C178.499 51.8698 178.028 52.0977 177.439 52.0977C176.831 52.0977 176.44 51.8242 176.267 51.2773C176.092 51.554 175.89 51.7607 175.662 51.8975C175.437 52.0309 175.205 52.0977 174.964 52.0977C174.501 52.0977 174.151 51.9089 173.914 51.5312C173.676 51.1536 173.588 50.6312 173.65 49.9639C173.699 49.4268 173.821 48.9482 174.016 48.5283C174.215 48.1051 174.469 47.7731 174.778 47.5322C175.091 47.2913 175.418 47.1709 175.76 47.1709C176.023 47.1709 176.259 47.2067 176.468 47.2783C176.676 47.3467 176.91 47.4834 177.171 47.6885L176.917 50.3936C176.855 51.1455 177.063 51.5215 177.542 51.5215C177.91 51.5215 178.207 51.3392 178.435 50.9746C178.663 50.61 178.787 50.1348 178.806 49.5488C178.868 48.2826 178.632 47.3174 178.098 46.6533C177.568 45.9893 176.759 45.6572 175.672 45.6572C175.017 45.6572 174.436 45.82 173.929 46.1455C173.421 46.4678 173.02 46.9349 172.727 47.5469C172.434 48.1589 172.27 48.8652 172.234 49.666C172.195 50.4733 172.293 51.1748 172.527 51.7705C172.762 52.363 173.118 52.8154 173.596 53.1279C174.078 53.4437 174.659 53.6016 175.34 53.6016C175.633 53.6016 175.926 53.5658 176.219 53.4941C176.515 53.4225 176.761 53.3298 176.956 53.2158L177.137 53.7773C176.935 53.9043 176.666 54.0085 176.331 54.0898C175.999 54.1712 175.662 54.2119 175.32 54.2119C174.506 54.2119 173.806 54.028 173.221 53.6602C172.635 53.2956 172.195 52.7682 171.902 52.0781C171.612 51.3913 171.487 50.5872 171.526 49.666C171.565 48.7708 171.765 47.9668 172.127 47.2539C172.488 46.5378 172.978 45.986 173.596 45.5986C174.215 45.208 174.913 45.0127 175.691 45.0127C176.502 45.0127 177.197 45.195 177.776 45.5596C178.356 45.9242 178.787 46.4499 179.07 47.1367C179.353 47.8236 179.475 48.6276 179.436 49.5488ZM174.427 49.9639C174.381 50.4261 174.423 50.7809 174.554 51.0283C174.687 51.2757 174.897 51.3994 175.183 51.3994C175.379 51.3994 175.566 51.3164 175.745 51.1504C175.927 50.9844 176.077 50.7467 176.194 50.4375L176.199 50.3936L176.424 47.9375C176.241 47.8431 176.046 47.7959 175.838 47.7959C175.457 47.7959 175.141 47.9896 174.89 48.377C174.643 48.7643 174.488 49.2933 174.427 49.9639ZM186.08 48.8604H183.097V52H182.16V44.8906H186.564V45.6621H183.097V48.0938H186.08V48.8604ZM190.093 52H189.155V44.8906H190.093V52ZM198.461 51.0674C198.22 51.4124 197.883 51.6712 197.45 51.8438C197.02 52.013 196.519 52.0977 195.946 52.0977C195.366 52.0977 194.852 51.9626 194.403 51.6924C193.954 51.4189 193.605 51.0316 193.358 50.5303C193.114 50.029 192.989 49.4479 192.982 48.7871V48.167C192.982 47.096 193.231 46.266 193.729 45.6768C194.23 45.0876 194.934 44.793 195.838 44.793C196.581 44.793 197.178 44.9834 197.63 45.3643C198.083 45.7419 198.36 46.279 198.461 46.9756H197.523C197.347 46.0348 196.787 45.5645 195.843 45.5645C195.215 45.5645 194.738 45.7858 194.413 46.2285C194.09 46.668 193.928 47.306 193.924 48.1426V48.7236C193.924 49.5212 194.107 50.1559 194.471 50.6279C194.836 51.0967 195.329 51.3311 195.951 51.3311C196.302 51.3311 196.61 51.292 196.874 51.2139C197.137 51.1357 197.355 51.0039 197.528 50.8184V49.2217H195.882V48.46H198.461V51.0674ZM202.639 44.8906L204.963 50.6914L207.287 44.8906H208.503V52H207.566V49.2314L207.654 46.2432L205.32 52H204.602L202.273 46.2578L202.365 49.2314V52H201.428V44.8906H202.639ZM215.572 50.1445H212.594L211.925 52H210.958L213.673 44.8906H214.493L217.213 52H216.251L215.572 50.1445ZM212.877 49.373H215.294L214.083 46.0479L212.877 49.373ZM223.994 52H219.335V51.3506L221.796 48.6162C222.161 48.2028 222.412 47.8675 222.548 47.6104C222.688 47.3499 222.758 47.0814 222.758 46.8047C222.758 46.4336 222.646 46.1292 222.421 45.8916C222.197 45.654 221.897 45.5352 221.523 45.5352C221.074 45.5352 220.724 45.6637 220.473 45.9209C220.226 46.1748 220.102 46.5296 220.102 46.9854H219.199C219.199 46.3311 219.409 45.8021 219.829 45.3984C220.252 44.9948 220.816 44.793 221.523 44.793C222.184 44.793 222.706 44.9671 223.09 45.3154C223.474 45.6605 223.666 46.1211 223.666 46.6973C223.666 47.3971 223.22 48.2305 222.329 49.1973L220.424 51.2627H223.994V52ZM232.049 52H231.106V48.7139H227.522V52H226.585V44.8906H227.522V47.9473H231.106V44.8906H232.049V52ZM239.879 45.6621H237.594V52H236.662V45.6621H234.381V44.8906H239.879V45.6621ZM243.545 44.8906L245.869 50.6914L248.194 44.8906H249.409V52H248.472V49.2314L248.56 46.2432L246.226 52H245.508L243.179 46.2578L243.272 49.2314V52H242.334V44.8906H243.545ZM253.407 51.2334H256.776V52H252.465V44.8906H253.407V51.2334Z" fill="#E4E4E4"/>
</g>
<defs>
<clipPath id="clip0_1_626">
<rect width="1440" height="280" fill="white"/>
</clipPath>
</defs>
</svg>
